<svg xmlns="http://www.w3.org/2000/svg" viewBox="0 0 120 120" fill="none">
  <!-- Background -->
  <rect width="120" height="120" rx="12" fill="#E8F4FD"/>
  <!-- Photo frame -->
  <rect x="28" y="26" width="64" height="50" rx="6" fill="#90CAF9" stroke="#5C9BD6" stroke-width="2"/>
  <!-- Portrait silhouette -->
  <circle cx="60" cy="43" r="10" fill="#5C9BD6" opacity="0.6"/>
  <ellipse cx="60" cy="68" rx="16" ry="10" fill="#5C9BD6" opacity="0.4"/>
  <!-- Mountains (landscape hint) -->
  <path d="M28 70 L42 55 L50 63 L62 48 L78 63 L92 70 Z" fill="#B3E5FC" opacity="0.5"/>
  <!-- Sun -->
  <circle cx="80" cy="36" r="5" fill="#FFE082" opacity="0.8"/>
  <!-- Glacier / ice -->
  <path d="M20 95 L35 78 L45 88 L55 72 L65 85 L75 75 L85 82 L100 95 Z" fill="#B3E5FC" stroke="#81D4FA" stroke-width="1.5"/>
  <path d="M30 95 L40 82 L50 90 L60 76 L70 86 L80 78 L90 95 Z" fill="#E1F5FE" opacity="0.7"/>
  <!-- Snowflake -->
  <circle cx="92" cy="22" r="2.5" fill="#81D4FA"/>
  <line x1="92" y1="17" x2="92" y2="27" stroke="#81D4FA" stroke-width="1.5" stroke-linecap="round"/>
  <line x1="87" y1="22" x2="97" y2="22" stroke="#81D4FA" stroke-width="1.5" stroke-linecap="round"/>
  <line x1="88.5" y1="18.5" x2="95.5" y2="25.5" stroke="#81D4FA" stroke-width="1.5" stroke-linecap="round"/>
  <line x1="95.5" y1="18.5" x2="88.5" y2="25.5" stroke="#81D4FA" stroke-width="1.5" stroke-linecap="round"/>
  <!-- Label -->
  <text x="60" y="112" text-anchor="middle" font-family="Arial,sans-serif" font-size="9" font-weight="bold" fill="#5C9BD6">ARCHIVÉ</text>
</svg>
